<svg width="128" height="128" viewBox="0 0 128 128" fill="none" xmlns="http://www.w3.org/2000/svg">
<rect width="128" height="128" rx="64" fill="white"/>
<path d="M107.845 39.861L65.3596 12.5743C64.5317 12.0426 63.4703 12.0426 62.6427 12.5743L20.1559 39.8499C19.4354 40.3125 18.9995 41.1104 19 41.9667L19.0103 87.2284C19.0108 88.1023 19.4643 88.9125 20.2087 89.3701L62.6854 115.453C63.0889 115.701 63.545 115.825 64.001 115.825C64.457 115.825 64.9133 115.701 65.3163 115.453L107.796 89.3804C108.54 88.9233 108.994 88.1126 108.994 87.2387L109 41.977C109 41.121 108.564 40.3235 107.845 39.861ZM64.0008 18.6182L79.5714 28.5809L64.0008 38.5431L48.4306 28.5809L64.0008 18.6182ZM24.795 85.3967V69.3227L40.0529 78.5863L40.0555 94.7706L24.795 85.3967ZM40.0555 71.9139L24.7948 62.5405V46.2649L40.0555 56.0297V71.9139ZM28.069 41.5476L42.9483 32.0274L57.8276 41.5476L42.9483 51.0678L28.069 41.5476ZM45.8399 56.0297L61.1011 46.2644V62.5405L45.8399 71.9139V56.0297ZM45.8475 82.0463L55.9909 88.5362L45.8475 94.7666V82.0463ZM61.1084 107.695L48.4801 99.9386L61.1084 92.1837V107.695ZM63.9985 86.8513L48.3926 77.1058L63.9985 67.4038L79.6044 77.1412L63.9985 86.8513ZM66.8934 107.695V92.1978L79.5121 99.9439L66.8934 107.695ZM82.1546 94.7782L72.001 88.5422L82.1546 82.0455V94.7782ZM82.1621 71.9257L66.9014 62.5518V46.2772L82.1621 56.042V71.9257ZM70.1754 41.5589L85.0547 32.0392L99.934 41.5589L85.0547 51.0792L70.1754 41.5589ZM103.208 85.4083L87.9471 94.7819V78.901L103.208 69.3521V85.4083ZM103.208 62.5518L87.9471 71.9257V56.0418L103.208 46.2764V62.5518Z" fill="black"/>
</svg>
